<?xml version="1.0" encoding="UTF-8"?>
<?xml-stylesheet href="https://cdnjs.cloudflare.com/ajax/libs/font-awesome/6.6.0/css/all.min.css" type="text/css"?>
<svg aria-roledescription="er" role="graphics-document document" viewBox="0 0 6645.755859375 1865" style="max-width: 100%;" xmlns="http://www.w3.org/2000/svg" width="100%" id="graph-div" height="100%" xmlns:xlink="http://www.w3.org/1999/xlink"><style>#graph-div{font-family:"trebuchet ms",verdana,arial,sans-serif;font-size:16px;fill:#ccc;}#graph-div .error-icon{fill:#a44141;}#graph-div .error-text{fill:#ddd;stroke:#ddd;}#graph-div .edge-thickness-normal{stroke-width:2px;}#graph-div .edge-thickness-thick{stroke-width:3.5px;}#graph-div .edge-pattern-solid{stroke-dasharray:0;}#graph-div .edge-pattern-dashed{stroke-dasharray:3;}#graph-div .edge-pattern-dotted{stroke-dasharray:2;}#graph-div .marker{fill:lightgrey;stroke:lightgrey;}#graph-div .marker.cross{stroke:lightgrey;}#graph-div svg{font-family:"trebuchet ms",verdana,arial,sans-serif;font-size:16px;}#graph-div .entityBox{fill:#1f2020;stroke:#81B1DB;}#graph-div .attributeBoxOdd{fill:hsl(0, 0%, 32%);stroke:#81B1DB;}#graph-div .attributeBoxEven{fill:hsl(0, 0%, 22%);stroke:#81B1DB;}#graph-div .relationshipLabelBox{fill:hsl(20, 1.5873015873%, 12.3529411765%);opacity:0.7;background-color:hsl(20, 1.5873015873%, 12.3529411765%);}#graph-div .relationshipLabelBox rect{opacity:0.5;}#graph-div .relationshipLine{stroke:lightgrey;}#graph-div .entityTitleText{text-anchor:middle;font-size:18px;fill:#ccc;}#graph-div #MD_PARENT_START{fill:#f5f5f5!important;stroke:lightgrey!important;stroke-width:1;}#graph-div #MD_PARENT_END{fill:#f5f5f5!important;stroke:lightgrey!important;stroke-width:1;}#graph-div :root{--mermaid-font-family:"trebuchet ms",verdana,arial,sans-serif;}</style><g></g><defs><marker orient="auto" markerHeight="240" markerWidth="190" refY="7" refX="0" id="MD_PARENT_START"><path d="M 18,7 L9,13 L1,7 L9,1 Z"></path></marker></defs><defs><marker orient="auto" markerHeight="28" markerWidth="20" refY="7" refX="19" id="MD_PARENT_END"><path d="M 18,7 L9,13 L1,7 L9,1 Z"></path></marker></defs><defs><marker orient="auto" markerHeight="18" markerWidth="18" refY="9" refX="0" id="ONLY_ONE_START"><path d="M9,0 L9,18 M15,0 L15,18" fill="none" stroke="gray"></path></marker></defs><defs><marker orient="auto" markerHeight="18" markerWidth="18" refY="9" refX="18" id="ONLY_ONE_END"><path d="M3,0 L3,18 M9,0 L9,18" fill="none" stroke="gray"></path></marker></defs><defs><marker orient="auto" markerHeight="18" markerWidth="30" refY="9" refX="0" id="ZERO_OR_ONE_START"><circle r="6" cy="9" cx="21" fill="white" stroke="gray"></circle><path d="M9,0 L9,18" fill="none" stroke="gray"></path></marker></defs><defs><marker orient="auto" markerHeight="18" markerWidth="30" refY="9" refX="30" id="ZERO_OR_ONE_END"><circle r="6" cy="9" cx="9" fill="white" stroke="gray"></circle><path d="M21,0 L21,18" fill="none" stroke="gray"></path></marker></defs><defs><marker orient="auto" markerHeight="36" markerWidth="45" refY="18" refX="18" id="ONE_OR_MORE_START"><path d="M0,18 Q 18,0 36,18 Q 18,36 0,18 M42,9 L42,27" fill="none" stroke="gray"></path></marker></defs><defs><marker orient="auto" markerHeight="36" markerWidth="45" refY="18" refX="27" id="ONE_OR_MORE_END"><path d="M3,9 L3,27 M9,18 Q27,0 45,18 Q27,36 9,18" fill="none" stroke="gray"></path></marker></defs><defs><marker orient="auto" markerHeight="36" markerWidth="57" refY="18" refX="18" id="ZERO_OR_MORE_START"><circle r="6" cy="18" cx="48" fill="white" stroke="gray"></circle><path d="M0,18 Q18,0 36,18 Q18,36 0,18" fill="none" stroke="gray"></path></marker></defs><defs><marker orient="auto" markerHeight="36" markerWidth="57" refY="18" refX="39" id="ZERO_OR_MORE_END"><circle r="6" cy="18" cx="9" fill="white" stroke="gray"></circle><path d="M21,18 Q39,0 57,18 Q39,36 21,18" fill="none" stroke="gray"></path></marker></defs><path style="stroke: gray; fill: none;" marker-start="url(#ONLY_ONE_START)" marker-end="url(#ZERO_OR_MORE_END)" d="M3834.168,90.293L3820.266,99.411C3806.364,108.529,3778.56,126.764,3764.658,150.466C3750.756,174.167,3750.756,203.333,3750.756,232.5C3750.756,261.667,3750.756,290.833,3750.756,320C3750.756,349.167,3750.756,378.333,3750.756,407.5C3750.756,436.667,3750.756,465.833,3743.613,488.75C3736.47,511.667,3722.184,528.333,3715.042,536.667L3707.899,545" class="er relationshipLine"></path><path style="stroke: gray; fill: none;" marker-start="url(#ONLY_ONE_START)" marker-end="url(#ZERO_OR_MORE_END)" d="M3880.563,95L3879.762,103.333C3878.96,111.667,3877.358,128.333,3876.557,151.25C3875.756,174.167,3875.756,203.333,3875.756,232.5C3875.756,261.667,3875.756,290.833,3875.756,320C3875.756,349.167,3875.756,378.333,3875.756,407.5C3875.756,436.667,3875.756,465.833,3875.756,495C3875.756,524.167,3875.756,553.333,3875.756,582.5C3875.756,611.667,3875.756,640.833,3875.756,670C3875.756,699.167,3875.756,728.333,3875.756,757.5C3875.756,786.667,3875.756,815.833,3863.256,839.167C3850.756,862.5,3825.756,880,3813.256,888.75L3800.756,897.5" class="er relationshipLine"></path><path style="stroke: gray; fill: none;" marker-start="url(#ONLY_ONE_START)" marker-end="url(#ZERO_OR_MORE_END)" d="M3934.168,60.385L4178.599,74.487C4423.031,88.59,4911.893,116.795,5156.325,145.481C5400.756,174.167,5400.756,203.333,5400.756,232.5C5400.756,261.667,5400.756,290.833,5400.756,320C5400.756,349.167,5400.756,378.333,5400.756,407.5C5400.756,436.667,5400.756,465.833,5400.756,495C5400.756,524.167,5400.756,553.333,5400.756,582.5C5400.756,611.667,5400.756,640.833,5400.756,670C5400.756,699.167,5400.756,728.333,5400.756,757.5C5400.756,786.667,5400.756,815.833,5400.756,845C5400.756,874.167,5400.756,903.333,5400.756,932.5C5400.756,961.667,5400.756,990.833,5400.756,1020C5400.756,1049.167,5400.756,1078.333,5400.756,1107.5C5400.756,1136.667,5400.756,1165.833,5400.756,1195C5400.756,1224.167,5400.756,1253.333,5400.756,1282.5C5400.756,1311.667,5400.756,1340.833,5400.756,1370C5400.756,1399.167,5400.756,1428.333,5400.756,1457.5C5400.756,1486.667,5400.756,1515.833,5334.089,1543.38C5267.423,1570.926,5134.089,1596.852,5067.423,1609.815L5000.756,1622.778" class="er relationshipLine"></path><path style="stroke: gray; fill: none;" marker-start="url(#ONLY_ONE_START)" marker-end="url(#ZERO_OR_MORE_END)" d="M3934.168,59.567L4278.599,73.806C4623.031,88.045,5311.893,116.522,5656.325,145.345C6000.756,174.167,6000.756,203.333,6000.756,232.5C6000.756,261.667,6000.756,290.833,6000.756,320C6000.756,349.167,6000.756,378.333,6000.756,407.5C6000.756,436.667,6000.756,465.833,6000.756,495C6000.756,524.167,6000.756,553.333,6000.756,582.5C6000.756,611.667,6000.756,640.833,6000.756,670C6000.756,699.167,6000.756,728.333,6000.756,757.5C6000.756,786.667,6000.756,815.833,6000.756,845C6000.756,874.167,6000.756,903.333,6000.756,932.5C6000.756,961.667,6000.756,990.833,6000.756,1020C6000.756,1049.167,6000.756,1078.333,6000.756,1107.5C6000.756,1136.667,6000.756,1165.833,6000.756,1195C6000.756,1224.167,6000.756,1253.333,6000.756,1282.5C6000.756,1311.667,6000.756,1340.833,5993.613,1363.75C5986.47,1386.667,5972.184,1403.333,5965.042,1411.667L5957.899,1420" class="er relationshipLine"></path><path style="stroke: gray; fill: none;" marker-start="url(#ONLY_ONE_START)" marker-end="url(#ZERO_OR_MORE_END)" d="M3834.168,60.129L3565.19,74.275C3296.213,88.42,2758.258,116.71,2489.28,139.188C2220.303,161.667,2220.303,178.333,2220.303,186.667L2220.303,195" class="er relationshipLine"></path><path style="stroke: gray; fill: none;" marker-start="url(#ONE_OR_MORE_START)" marker-end="url(#ONLY_ONE_END)" d="M3834.168,59.328L3443.519,73.606C3052.869,87.885,2271.57,116.443,1880.921,139.055C1490.271,161.667,1490.271,178.333,1490.271,186.667L1490.271,195" class="er relationshipLine"></path><path style="stroke: gray; fill: none;" marker-start="url(#ONE_OR_MORE_START)" marker-end="url(#ONLY_ONE_END)" d="M3934.168,59.096L4382.766,73.413C4831.364,87.731,5728.56,116.365,6177.158,145.266C6625.756,174.167,6625.756,203.333,6625.756,232.5C6625.756,261.667,6625.756,290.833,6625.756,320C6625.756,349.167,6625.756,378.333,6625.756,407.5C6625.756,436.667,6625.756,465.833,6625.756,495C6625.756,524.167,6625.756,553.333,6625.756,582.5C6625.756,611.667,6625.756,640.833,6625.756,670C6625.756,699.167,6625.756,728.333,6625.756,757.5C6625.756,786.667,6625.756,815.833,6625.756,845C6625.756,874.167,6625.756,903.333,6625.756,932.5C6625.756,961.667,6625.756,990.833,6625.756,1020C6625.756,1049.167,6625.756,1078.333,6625.756,1107.5C6625.756,1136.667,6625.756,1165.833,6625.756,1195C6625.756,1224.167,6625.756,1253.333,6625.756,1282.5C6625.756,1311.667,6625.756,1340.833,6625.756,1370C6625.756,1399.167,6625.756,1428.333,6625.756,1457.5C6625.756,1486.667,6625.756,1515.833,6625.756,1545C6625.756,1574.167,6625.756,1603.333,6625.756,1632.5C6625.756,1661.667,6625.756,1690.833,6584.216,1717.532C6542.676,1744.231,6459.597,1768.463,6418.057,1780.579L6376.518,1792.694" class="er relationshipLine"></path><path style="stroke: gray; fill: none;" marker-start="url(#ONLY_ONE_START)" marker-end="url(#ZERO_OR_MORE_END)" d="M3707.899,620L3715.042,628.333C3722.184,636.667,3736.47,653.333,3743.613,676.25C3750.756,699.167,3750.756,728.333,3750.756,757.5C3750.756,786.667,3750.756,815.833,3750.756,838.75C3750.756,861.667,3750.756,878.333,3750.756,886.667L3750.756,895" class="er relationshipLine"></path><path style="stroke: gray; fill: none;" marker-start="url(#ONLY_ONE_START)" marker-end="url(#ZERO_OR_MORE_END)" d="M3625.756,587.5L3488.256,601.25C3350.756,615,3075.756,642.5,2938.256,670.833C2800.756,699.167,2800.756,728.333,2800.756,757.5C2800.756,786.667,2800.756,815.833,2800.756,845C2800.756,874.167,2800.756,903.333,2800.756,932.5C2800.756,961.667,2800.756,990.833,2800.756,1020C2800.756,1049.167,2800.756,1078.333,2800.756,1107.5C2800.756,1136.667,2800.756,1165.833,2800.756,1195C2800.756,1224.167,2800.756,1253.333,2800.756,1282.5C2800.756,1311.667,2800.756,1340.833,2800.756,1363.75C2800.756,1386.667,2800.756,1403.333,2800.756,1411.667L2800.756,1420" class="er relationshipLine"></path><path style="stroke: gray; fill: none;" marker-start="url(#ONLY_ONE_START)" marker-end="url(#ZERO_OR_MORE_END)" d="M3725.756,585.192L3988.256,599.327C4250.756,613.462,4775.756,641.731,5038.256,670.449C5300.756,699.167,5300.756,728.333,5300.756,757.5C5300.756,786.667,5300.756,815.833,5300.756,845C5300.756,874.167,5300.756,903.333,5300.756,932.5C5300.756,961.667,5300.756,990.833,5300.756,1020C5300.756,1049.167,5300.756,1078.333,5300.756,1107.5C5300.756,1136.667,5300.756,1165.833,5300.756,1195C5300.756,1224.167,5300.756,1253.333,5300.756,1282.5C5300.756,1311.667,5300.756,1340.833,5300.756,1370C5300.756,1399.167,5300.756,1428.333,5300.756,1457.5C5300.756,1486.667,5300.756,1515.833,5250.756,1542.917C5200.756,1570,5100.756,1595,5050.756,1607.5L5000.756,1620" class="er relationshipLine"></path><path style="stroke: gray; fill: none;" marker-start="url(#ONLY_ONE_START)" marker-end="url(#ONLY_ONE_END)" d="M3625.756,586.987L3471.589,600.823C3317.423,614.658,3009.089,642.329,2854.923,670.748C2700.756,699.167,2700.756,728.333,2700.756,757.5C2700.756,786.667,2700.756,815.833,2700.756,845C2700.756,874.167,2700.756,903.333,2700.756,932.5C2700.756,961.667,2700.756,990.833,2700.756,1020C2700.756,1049.167,2700.756,1078.333,2700.756,1107.5C2700.756,1136.667,2700.756,1165.833,2700.756,1195C2700.756,1224.167,2700.756,1253.333,2700.756,1282.5C2700.756,1311.667,2700.756,1340.833,2675.756,1366.354C2650.756,1391.875,2600.756,1413.75,2575.756,1424.688L2550.756,1435.625" class="er relationshipLine"></path><path style="stroke: gray; fill: none;" marker-start="url(#ONLY_ONE_START)" marker-end="url(#ZERO_OR_MORE_END)" d="M3625.756,595.962L3579.923,608.301C3534.089,620.641,3442.423,645.321,3396.589,672.244C3350.756,699.167,3350.756,728.333,3350.756,757.5C3350.756,786.667,3350.756,815.833,3350.756,845C3350.756,874.167,3350.756,903.333,3350.756,932.5C3350.756,961.667,3350.756,990.833,3350.756,1020C3350.756,1049.167,3350.756,1078.333,3350.756,1107.5C3350.756,1136.667,3350.756,1165.833,3341.232,1188.75C3331.708,1211.667,3312.661,1228.333,3303.137,1236.667L3293.613,1245" class="er relationshipLine"></path><path style="stroke: gray; fill: none;" marker-start="url(#ONLY_ONE_START)" marker-end="url(#ZERO_OR_MORE_END)" d="M3625.756,583.842L3090.703,598.202C2555.65,612.561,1485.545,641.281,950.492,670.224C415.439,699.167,415.439,728.333,415.439,757.5C415.439,786.667,415.439,815.833,415.439,845C415.439,874.167,415.439,903.333,415.439,932.5C415.439,961.667,415.439,990.833,415.439,1020C415.439,1049.167,415.439,1078.333,415.439,1107.5C415.439,1136.667,415.439,1165.833,415.439,1195C415.439,1224.167,415.439,1253.333,415.439,1282.5C415.439,1311.667,415.439,1340.833,405.916,1363.75C396.392,1386.667,377.344,1403.333,367.82,1411.667L358.297,1420" class="er relationshipLine"></path><path style="stroke: gray; fill: none;" marker-start="url(#ONLY_ONE_START)" marker-end="url(#ZERO_OR_MORE_END)" d="M3643.613,620L3636.47,628.333C3629.327,636.667,3615.042,653.333,3607.899,670C3600.756,686.667,3600.756,703.333,3600.756,711.667L3600.756,720" class="er relationshipLine"></path><path style="stroke: gray; fill: none;" marker-start="url(#ONLY_ONE_START)" marker-end="url(#ONLY_ONE_END)" d="M3625.756,583.907L3115.703,598.256C2605.65,612.604,1585.545,641.302,1075.492,663.984C565.439,686.667,565.439,703.333,565.439,711.667L565.439,720" class="er relationshipLine"></path><path style="stroke: gray; fill: none;" marker-start="url(#ONLY_ONE_START)" marker-end="url(#ONLY_ONE_END)" d="M3625.756,584.003L3149.036,598.336C2672.317,612.669,1718.878,641.334,1242.159,664.001C765.439,686.667,765.439,703.333,765.439,711.667L765.439,720" class="er relationshipLine"></path><path style="stroke: gray; fill: none;" marker-start="url(#ONLY_ONE_START)" marker-end="url(#ONLY_ONE_END)" d="M3625.756,584.12L3184.07,598.434C2742.385,612.747,1859.014,641.373,1417.328,664.02C975.643,686.667,975.643,703.333,975.643,711.667L975.643,720" class="er relationshipLine"></path><path style="stroke: gray; fill: none;" marker-start="url(#ONLY_ONE_START)" marker-end="url(#ZERO_OR_MORE_END)" d="M3625.756,589.5L3529.923,602.917C3434.089,616.333,3242.423,643.167,3146.589,671.167C3050.756,699.167,3050.756,728.333,3050.756,757.5C3050.756,786.667,3050.756,815.833,3050.756,845C3050.756,874.167,3050.756,903.333,3050.756,932.5C3050.756,961.667,3050.756,990.833,3050.756,1020C3050.756,1049.167,3050.756,1078.333,3050.756,1107.5C3050.756,1136.667,3050.756,1165.833,3050.756,1195C3050.756,1224.167,3050.756,1253.333,3050.756,1282.5C3050.756,1311.667,3050.756,1340.833,3045.994,1363.75C3041.232,1386.667,3031.708,1403.333,3026.946,1411.667L3022.184,1420" class="er relationshipLine"></path><path style="stroke: gray; fill: none;" marker-start="url(#ONE_OR_MORE_START)" marker-end="url(#ONLY_ONE_END)" d="M3725.756,584.035L4192.423,598.363C4659.089,612.69,5592.423,641.345,6059.089,670.256C6525.756,699.167,6525.756,728.333,6525.756,757.5C6525.756,786.667,6525.756,815.833,6525.756,845C6525.756,874.167,6525.756,903.333,6525.756,932.5C6525.756,961.667,6525.756,990.833,6525.756,1020C6525.756,1049.167,6525.756,1078.333,6525.756,1107.5C6525.756,1136.667,6525.756,1165.833,6525.756,1195C6525.756,1224.167,6525.756,1253.333,6525.756,1282.5C6525.756,1311.667,6525.756,1340.833,6525.756,1370C6525.756,1399.167,6525.756,1428.333,6525.756,1457.5C6525.756,1486.667,6525.756,1515.833,6525.756,1545C6525.756,1574.167,6525.756,1603.333,6525.756,1632.5C6525.756,1661.667,6525.756,1690.833,6500.883,1716.299C6476.01,1741.764,6426.264,1763.528,6401.391,1774.41L6376.518,1785.292" class="er relationshipLine"></path><path style="stroke: gray; fill: none;" marker-start="url(#ONE_OR_MORE_START)" marker-end="url(#ONLY_ONE_END)" d="M3625.756,584.257L3219.104,598.548C2812.452,612.838,1999.149,641.419,1592.497,664.043C1185.846,686.667,1185.846,703.333,1185.846,711.667L1185.846,720" class="er relationshipLine"></path><path style="stroke: gray; fill: none;" marker-start="url(#ONE_OR_MORE_START)" marker-end="url(#ONLY_ONE_END)" d="M3725.756,597.083L3767.423,609.236C3809.089,621.389,3892.423,645.694,3934.089,672.431C3975.756,699.167,3975.756,728.333,3975.756,757.5C3975.756,786.667,3975.756,815.833,3975.756,845C3975.756,874.167,3975.756,903.333,3975.756,932.5C3975.756,961.667,3975.756,990.833,3975.756,1020C3975.756,1049.167,3975.756,1078.333,3975.756,1107.5C3975.756,1136.667,3975.756,1165.833,3975.756,1195C3975.756,1224.167,3975.756,1253.333,3975.756,1282.5C3975.756,1311.667,3975.756,1340.833,3956.325,1365.623C3936.893,1390.413,3898.031,1410.825,3878.599,1421.031L3859.168,1431.238" class="er relationshipLine"></path><path style="stroke: gray; fill: none;" marker-start="url(#ONE_OR_MORE_START)" marker-end="url(#ONLY_ONE_END)" d="M3725.756,591.25L3800.756,604.375C3875.756,617.5,4025.756,643.75,4100.756,671.458C4175.756,699.167,4175.756,728.333,4175.756,757.5C4175.756,786.667,4175.756,815.833,4175.756,845C4175.756,874.167,4175.756,903.333,4175.756,932.5C4175.756,961.667,4175.756,990.833,4175.756,1020C4175.756,1049.167,4175.756,1078.333,4175.756,1107.5C4175.756,1136.667,4175.756,1165.833,4175.756,1195C4175.756,1224.167,4175.756,1253.333,4175.756,1282.5C4175.756,1311.667,4175.756,1340.833,4170.994,1363.75C4166.232,1386.667,4156.708,1403.333,4151.946,1411.667L4147.184,1420" class="er relationshipLine"></path><path style="stroke: gray; fill: none;" marker-start="url(#ONLY_ONE_START)" marker-end="url(#ONLY_ONE_END)" d="M3800.756,937.803L3929.923,951.503C4059.089,965.202,4317.423,992.601,4429.923,1016.023C4542.423,1039.444,4509.089,1058.889,4492.423,1068.611L4475.756,1078.333" class="er relationshipLine"></path><path style="stroke: gray; fill: none;" marker-start="url(#ONLY_ONE_START)" marker-end="url(#ZERO_OR_MORE_END)" d="M3800.756,935.517L4034.089,949.598C4267.423,963.678,4734.089,991.839,4967.423,1020.503C5200.756,1049.167,5200.756,1078.333,5200.756,1107.5C5200.756,1136.667,5200.756,1165.833,5200.756,1195C5200.756,1224.167,5200.756,1253.333,5200.756,1282.5C5200.756,1311.667,5200.756,1340.833,5200.756,1370C5200.756,1399.167,5200.756,1428.333,5200.756,1457.5C5200.756,1486.667,5200.756,1515.833,5167.423,1542.083C5134.089,1568.333,5067.423,1591.667,5034.089,1603.333L5000.756,1615" class="er relationshipLine"></path><path style="stroke: gray; fill: none;" marker-start="url(#ONLY_ONE_START)" marker-end="url(#ZERO_OR_MORE_END)" d="M4900.756,1631.29L4306.604,1616.908C3712.452,1602.526,2524.149,1573.763,1929.997,1544.798C1335.846,1515.833,1335.846,1486.667,1335.846,1457.5C1335.846,1428.333,1335.846,1399.167,1335.846,1370C1335.846,1340.833,1335.846,1311.667,1335.846,1282.5C1335.846,1253.333,1335.846,1224.167,1335.846,1195C1335.846,1165.833,1335.846,1136.667,1335.846,1107.5C1335.846,1078.333,1335.846,1049.167,1335.846,1020C1335.846,990.833,1335.846,961.667,1335.846,932.5C1335.846,903.333,1335.846,874.167,1335.846,845C1335.846,815.833,1335.846,786.667,1335.846,757.5C1335.846,728.333,1335.846,699.167,1335.846,670C1335.846,640.833,1335.846,611.667,1335.846,582.5C1335.846,553.333,1335.846,524.167,1335.846,495C1335.846,465.833,1335.846,436.667,1335.846,407.5C1335.846,378.333,1335.846,349.167,1335.846,320C1335.846,290.833,1335.846,261.667,1335.846,232.5C1335.846,203.333,1335.846,174.167,1752.233,145.286C2168.62,116.406,3001.394,87.811,3417.781,73.514L3834.168,59.217" class="er relationshipLine"></path><path style="stroke: gray; fill: none;" marker-start="url(#ONE_OR_MORE_START)" marker-end="url(#ONLY_ONE_END)" d="M4900.756,1633.399L4097.596,1647.832C3294.436,1662.266,1688.117,1691.133,884.957,1713.9C81.797,1736.667,81.797,1753.333,81.797,1761.667L81.797,1770" class="er relationshipLine"></path><path style="stroke: gray; fill: none;" marker-start="url(#ONE_OR_MORE_START)" marker-end="url(#ONLY_ONE_END)" d="M5000.756,1635.466L5238.256,1649.555C5475.756,1663.644,5950.756,1691.822,6178.732,1714.244C6406.708,1736.667,6387.661,1753.333,6378.137,1761.667L6368.613,1770" class="er relationshipLine"></path><path style="stroke: gray; fill: none;" marker-start="url(#ONE_OR_MORE_START)" marker-end="url(#ONLY_ONE_END)" d="M4950.756,1670L4950.756,1678.333C4950.756,1686.667,4950.756,1703.333,4950.756,1720C4950.756,1736.667,4950.756,1753.333,4950.756,1761.667L4950.756,1770" class="er relationshipLine"></path><path style="stroke: gray; fill: none;" marker-start="url(#ONLY_ONE_START)" marker-end="url(#ZERO_OR_MORE_END)" d="M4704.327,1245L4699.565,1236.667C4694.803,1228.333,4685.28,1211.667,4680.518,1188.75C4675.756,1165.833,4675.756,1136.667,4675.756,1107.5C4675.756,1078.333,4675.756,1049.167,4675.756,1020C4675.756,990.833,4675.756,961.667,4675.756,932.5C4675.756,903.333,4675.756,874.167,4675.756,845C4675.756,815.833,4675.756,786.667,4675.756,757.5C4675.756,728.333,4675.756,699.167,4675.756,670C4675.756,640.833,4675.756,611.667,4675.756,582.5C4675.756,553.333,4675.756,524.167,4675.756,495C4675.756,465.833,4675.756,436.667,4675.756,407.5C4675.756,378.333,4675.756,349.167,4675.756,320C4675.756,290.833,4675.756,261.667,4675.756,232.5C4675.756,203.333,4675.756,174.167,4552.158,145.921C4428.56,117.676,4181.364,90.351,4057.766,76.689L3934.168,63.027" class="er relationshipLine"></path><path style="stroke: gray; fill: none;" marker-start="url(#ONLY_ONE_START)" marker-end="url(#ZERO_OR_MORE_END)" d="M4775.756,1294.167L4829.923,1306.806C4884.089,1319.444,4992.423,1344.722,5046.589,1371.944C5100.756,1399.167,5100.756,1428.333,5100.756,1457.5C5100.756,1486.667,5100.756,1515.833,5084.089,1540.139C5067.423,1564.444,5034.089,1583.889,5017.423,1593.611L5000.756,1603.333" class="er relationshipLine"></path><path style="stroke: gray; fill: none;" marker-start="url(#ONLY_ONE_START)" marker-end="url(#ZERO_OR_MORE_END)" d="M4675.756,1283.492L3949.036,1297.91C3222.317,1312.328,1768.878,1341.164,1042.159,1363.915C315.439,1386.667,315.439,1403.333,315.439,1411.667L315.439,1420" class="er relationshipLine"></path><path style="stroke: gray; fill: none;" marker-start="url(#ONLY_ONE_START)" marker-end="url(#ZERO_OR_MORE_END)" d="M4775.756,1286.223L4963.256,1300.186C5150.756,1314.149,5525.756,1342.074,5715.637,1364.371C5905.518,1386.667,5910.28,1403.333,5912.661,1411.667L5915.042,1420" class="er relationshipLine"></path><path style="stroke: gray; fill: none;" marker-start="url(#ONLY_ONE_START)" marker-end="url(#ZERO_OR_MORE_END)" d="M4775.756,1285.466L5013.256,1299.555C5250.756,1313.644,5725.756,1341.822,5958.494,1364.244C6191.232,1386.667,6181.708,1403.333,6176.946,1411.667L6172.184,1420" class="er relationshipLine"></path><path style="stroke: gray; fill: none;" marker-start="url(#ONLY_ONE_START)" marker-end="url(#ZERO_OR_MORE_END)" d="M4775.756,1286.987L4929.923,1300.823C5084.089,1314.658,5392.423,1342.329,5546.589,1370.748C5700.756,1399.167,5700.756,1428.333,5700.756,1457.5C5700.756,1486.667,5700.756,1515.833,5693.613,1538.75C5686.47,1561.667,5672.184,1578.333,5665.042,1586.667L5657.899,1595" class="er relationshipLine"></path><path style="stroke: gray; fill: none;" marker-start="url(#ONLY_ONE_START)" marker-end="url(#ZERO_OR_MORE_END)" d="M4675.756,1284.965L4388.256,1299.137C4100.756,1313.31,3525.756,1341.655,3243.018,1364.161C2960.28,1386.667,2969.803,1403.333,2974.565,1411.667L2979.327,1420" class="er relationshipLine"></path><path style="stroke: gray; fill: none;" marker-start="url(#ONE_OR_MORE_START)" marker-end="url(#ONLY_ONE_END)" d="M4775.756,1285.234L5034.089,1299.362C5292.423,1313.49,5809.089,1341.745,6067.423,1370.456C6325.756,1399.167,6325.756,1428.333,6325.756,1457.5C6325.756,1486.667,6325.756,1515.833,6325.756,1545C6325.756,1574.167,6325.756,1603.333,6325.756,1632.5C6325.756,1661.667,6325.756,1690.833,6325.756,1713.75C6325.756,1736.667,6325.756,1753.333,6325.756,1761.667L6325.756,1770" class="er relationshipLine"></path><path style="stroke: gray; fill: none;" marker-start="url(#ONE_OR_MORE_START)" marker-end="url(#ONLY_ONE_END)" d="M4675.756,1289.231L4575.756,1302.692C4475.756,1316.154,4275.756,1343.077,4180.518,1364.872C4085.28,1386.667,4094.803,1403.333,4099.565,1411.667L4104.327,1420" class="er relationshipLine"></path><path style="stroke: gray; fill: none;" marker-start="url(#ONE_OR_MORE_START)" marker-end="url(#ONLY_ONE_END)" d="M4675.756,1286.76L4512.914,1300.633C4350.073,1314.507,4024.39,1342.253,3872.069,1364.46C3719.747,1386.667,3740.787,1403.333,3751.307,1411.667L3761.828,1420" class="er relationshipLine"></path><path style="stroke: gray; fill: none;" marker-start="url(#ONLY_ONE_START)" marker-end="url(#ONLY_ONE_END)" d="M4675.756,1284.559L4329.923,1298.799C3984.089,1313.039,3292.423,1341.52,2937.065,1364.093C2581.708,1386.667,2562.661,1403.333,2553.137,1411.667L2543.613,1420" class="er relationshipLine"></path><path style="stroke: gray; fill: none;" marker-start="url(#ONLY_ONE_START)" marker-end="url(#ZERO_OR_MORE_END)" d="M3834.168,59.501L3478.188,73.751C3122.209,88.001,2410.25,116.5,2054.271,139.084C1698.291,161.667,1698.291,178.333,1698.291,186.667L1698.291,195" class="er relationshipLine"></path><path style="stroke: gray; fill: none;" marker-start="url(#ONLY_ONE_START)" marker-end="url(#ZERO_OR_MORE_END)" d="M3600.756,795L3600.756,803.333C3600.756,811.667,3600.756,828.333,3617.423,846.389C3634.089,864.444,3667.423,883.889,3684.089,893.611L3700.756,903.333" class="er relationshipLine"></path><path style="stroke: gray; fill: none;" marker-start="url(#ONLY_ONE_START)" marker-end="url(#ZERO_OR_MORE_END)" d="M4404.327,1070L4399.565,1061.667C4394.803,1053.333,4385.28,1036.667,4380.518,1013.75C4375.756,990.833,4375.756,961.667,4375.756,932.5C4375.756,903.333,4375.756,874.167,4375.756,845C4375.756,815.833,4375.756,786.667,4375.756,757.5C4375.756,728.333,4375.756,699.167,4267.423,671.042C4159.089,642.917,3942.423,615.833,3834.089,602.292L3725.756,588.75" class="er relationshipLine"></path><path style="stroke: gray; fill: none;" marker-start="url(#ONLY_ONE_START)" marker-end="url(#ZERO_OR_MORE_END)" d="M4475.756,1115.109L4563.256,1128.424C4650.756,1141.739,4825.756,1168.37,4913.256,1196.268C5000.756,1224.167,5000.756,1253.333,5000.756,1282.5C5000.756,1311.667,5000.756,1340.833,5000.756,1370C5000.756,1399.167,5000.756,1428.333,5000.756,1457.5C5000.756,1486.667,5000.756,1515.833,4995.994,1538.75C4991.232,1561.667,4981.708,1578.333,4976.946,1586.667L4972.184,1595" class="er relationshipLine"></path><path style="stroke: gray; fill: none;" marker-start="url(#ONLY_ONE_START)" marker-end="url(#ONLY_ONE_END)" d="M4375.756,1111.223L4188.256,1125.186C4000.756,1139.149,3625.756,1167.074,3438.256,1189.371C3250.756,1211.667,3250.756,1228.333,3250.756,1236.667L3250.756,1245" class="er relationshipLine"></path><path style="stroke: gray; fill: none;" marker-start="url(#ONLY_ONE_START)" marker-end="url(#ONLY_ONE_END)" d="M4475.756,1120L4525.756,1132.5C4575.756,1145,4675.756,1170,4720.994,1190.833C4766.232,1211.667,4756.708,1228.333,4751.946,1236.667L4747.184,1245" class="er relationshipLine"></path><path style="stroke: gray; fill: none;" marker-start="url(#ONLY_ONE_START)" marker-end="url(#ZERO_OR_MORE_END)" d="M4375.756,1078.333L4359.089,1068.611C4342.423,1058.889,4309.089,1039.444,4292.423,1015.139C4275.756,990.833,4275.756,961.667,4275.756,932.5C4275.756,903.333,4275.756,874.167,4275.756,845C4275.756,815.833,4275.756,786.667,4275.756,757.5C4275.756,728.333,4275.756,699.167,4275.756,670C4275.756,640.833,4275.756,611.667,4275.756,582.5C4275.756,553.333,4275.756,524.167,4275.756,495C4275.756,465.833,4275.756,436.667,4275.756,407.5C4275.756,378.333,4275.756,349.167,4275.756,320C4275.756,290.833,4275.756,261.667,4275.756,232.5C4275.756,203.333,4275.756,174.167,4218.825,146.862C4161.893,119.557,4048.031,94.115,3991.099,81.394L3934.168,68.672" class="er relationshipLine"></path><path style="stroke: gray; fill: none;" marker-start="url(#ONLY_ONE_START)" marker-end="url(#ZERO_OR_MORE_END)" d="M4125.756,418.438L4184.089,431.198C4242.423,443.958,4359.089,469.479,4417.423,496.823C4475.756,524.167,4475.756,553.333,4475.756,582.5C4475.756,611.667,4475.756,640.833,4475.756,670C4475.756,699.167,4475.756,728.333,4475.756,757.5C4475.756,786.667,4475.756,815.833,4475.756,845C4475.756,874.167,4475.756,903.333,4475.756,932.5C4475.756,961.667,4475.756,990.833,4470.994,1013.75C4466.232,1036.667,4456.708,1053.333,4451.946,1061.667L4447.184,1070" class="er relationshipLine"></path><path style="stroke: gray; fill: none;" marker-start="url(#ONLY_ONE_START)" marker-end="url(#ZERO_OR_MORE_END)" d="M4025.756,416.25L3950.756,429.375C3875.756,442.5,3725.756,468.75,3660.28,490.208C3594.803,511.667,3613.851,528.333,3623.375,536.667L3632.899,545" class="er relationshipLine"></path><path style="stroke: gray; fill: none;" marker-start="url(#ONLY_ONE_START)" marker-end="url(#ZERO_OR_MORE_END)" d="M4125.756,412.803L4254.923,426.503C4384.089,440.202,4642.423,467.601,4771.589,495.884C4900.756,524.167,4900.756,553.333,4900.756,582.5C4900.756,611.667,4900.756,640.833,4900.756,670C4900.756,699.167,4900.756,728.333,4900.756,757.5C4900.756,786.667,4900.756,815.833,4900.756,845C4900.756,874.167,4900.756,903.333,4900.756,932.5C4900.756,961.667,4900.756,990.833,4900.756,1020C4900.756,1049.167,4900.756,1078.333,4900.756,1107.5C4900.756,1136.667,4900.756,1165.833,4900.756,1195C4900.756,1224.167,4900.756,1253.333,4900.756,1282.5C4900.756,1311.667,4900.756,1340.833,4900.756,1370C4900.756,1399.167,4900.756,1428.333,4900.756,1457.5C4900.756,1486.667,4900.756,1515.833,4905.518,1538.75C4910.28,1561.667,4919.803,1578.333,4924.565,1586.667L4929.327,1595" class="er relationshipLine"></path><path style="stroke: gray; fill: none;" marker-start="url(#ONLY_ONE_START)" marker-end="url(#ONLY_ONE_END)" d="M4025.756,410.278L3771.589,424.398C3517.423,438.519,3009.089,466.759,2754.923,495.463C2500.756,524.167,2500.756,553.333,2500.756,582.5C2500.756,611.667,2500.756,640.833,2500.756,670C2500.756,699.167,2500.756,728.333,2500.756,757.5C2500.756,786.667,2500.756,815.833,2500.756,845C2500.756,874.167,2500.756,903.333,2500.756,932.5C2500.756,961.667,2500.756,990.833,2500.756,1020C2500.756,1049.167,2500.756,1078.333,2500.756,1107.5C2500.756,1136.667,2500.756,1165.833,2500.756,1195C2500.756,1224.167,2500.756,1253.333,2500.756,1282.5C2500.756,1311.667,2500.756,1340.833,2500.756,1363.75C2500.756,1386.667,2500.756,1403.333,2500.756,1411.667L2500.756,1420" class="er relationshipLine"></path><path style="stroke: gray; fill: none;" marker-start="url(#ONLY_ONE_START)" marker-end="url(#ZERO_OR_MORE_END)" d="M2850.756,1459.928L3142.764,1474.106C3434.772,1488.285,4018.788,1516.643,4360.455,1543.309C4702.122,1569.975,4801.439,1594.951,4851.097,1607.439L4900.756,1619.926" class="er relationshipLine"></path><path style="stroke: gray; fill: none;" marker-start="url(#ONE_OR_MORE_START)" marker-end="url(#ONLY_ONE_END)" d="M2750.756,1459.743L2434.07,1473.953C2117.385,1488.162,1484.014,1516.581,1167.328,1539.124C850.643,1561.667,850.643,1578.333,850.643,1586.667L850.643,1595" class="er relationshipLine"></path><path style="stroke: gray; fill: none;" marker-start="url(#ONLY_ONE_START)" marker-end="url(#ZERO_OR_MORE_END)" d="M3300.756,1285.994L3501.097,1299.995C3701.439,1313.996,4102.122,1341.998,4302.463,1370.582C4502.805,1399.167,4502.805,1428.333,4502.805,1457.5C4502.805,1486.667,4502.805,1515.833,4569.13,1543.372C4635.455,1570.911,4768.105,1596.822,4834.431,1609.778L4900.756,1622.733" class="er relationshipLine"></path><path style="stroke: gray; fill: none;" marker-start="url(#ONLY_ONE_START)" marker-end="url(#ZERO_OR_MORE_END)" d="M3207.899,1245L3198.375,1236.667C3188.851,1228.333,3169.803,1211.667,3160.28,1188.75C3150.756,1165.833,3150.756,1136.667,3150.756,1107.5C3150.756,1078.333,3150.756,1049.167,3242.423,1021.215C3334.089,993.264,3517.423,966.528,3609.089,953.16L3700.756,939.792" class="er relationshipLine"></path><path style="stroke: gray; fill: none;" marker-start="url(#ONLY_ONE_START)" marker-end="url(#ONLY_ONE_END)" d="M3200.756,1287.647L3067.423,1301.373C2934.089,1315.098,2667.423,1342.549,2543.613,1364.608C2419.803,1386.667,2438.851,1403.333,2448.375,1411.667L2457.899,1420" class="er relationshipLine"></path><path style="stroke: gray; fill: none;" marker-start="url(#ONLY_ONE_START)" marker-end="url(#ONLY_ONE_END)" d="M282.223,1495L274.842,1503.333C267.461,1511.667,252.698,1528.333,245.317,1545C237.936,1561.667,237.936,1578.333,237.936,1586.667L237.936,1595" class="er relationshipLine"></path><path style="stroke: gray; fill: none;" marker-start="url(#ONLY_ONE_START)" marker-end="url(#ZERO_OR_MORE_END)" d="M272.582,1420L263.059,1411.667C253.535,1403.333,234.487,1386.667,224.963,1363.75C215.439,1340.833,215.439,1311.667,215.439,1282.5C215.439,1253.333,215.439,1224.167,215.439,1195C215.439,1165.833,215.439,1136.667,215.439,1107.5C215.439,1078.333,215.439,1049.167,796.326,1020.206C1377.212,991.246,2538.984,962.492,3119.87,948.115L3700.756,933.738" class="er relationshipLine"></path><path style="stroke: gray; fill: none;" marker-start="url(#ONLY_ONE_START)" marker-end="url(#ZERO_OR_MORE_END)" d="M365.439,1459.129L804.837,1473.44C1244.234,1487.752,2123.028,1516.376,2878.914,1544.897C3634.8,1573.418,4267.778,1601.837,4584.267,1616.046L4900.756,1630.255" class="er relationshipLine"></path><path style="stroke: gray; fill: none;" marker-start="url(#ONE_OR_MORE_START)" marker-end="url(#ONLY_ONE_END)" d="M348.655,1495L356.037,1503.333C363.418,1511.667,378.181,1528.333,385.562,1551.25C392.943,1574.167,392.943,1603.333,392.943,1632.5C392.943,1661.667,392.943,1690.833,385.562,1713.75C378.181,1736.667,363.418,1753.333,356.037,1761.667L348.655,1770" class="er relationshipLine"></path><path style="stroke: gray; fill: none;" marker-start="url(#ONE_OR_MORE_START)" marker-end="url(#ONLY_ONE_END)" d="M237.936,1670L237.936,1678.333C237.936,1686.667,237.936,1703.333,245.317,1720C252.698,1736.667,267.461,1753.333,274.842,1761.667L282.223,1770" class="er relationshipLine"></path><path style="stroke: gray; fill: none;" marker-start="url(#ONLY_ONE_START)" marker-end="url(#ZERO_OR_MORE_END)" d="M5875.756,1422.5L5863.256,1413.75C5850.756,1405,5825.756,1387.5,5813.256,1364.167C5800.756,1340.833,5800.756,1311.667,5800.756,1282.5C5800.756,1253.333,5800.756,1224.167,5800.756,1195C5800.756,1165.833,5800.756,1136.667,5800.756,1107.5C5800.756,1078.333,5800.756,1049.167,5800.756,1020C5800.756,990.833,5800.756,961.667,5800.756,932.5C5800.756,903.333,5800.756,874.167,5800.756,845C5800.756,815.833,5800.756,786.667,5800.756,757.5C5800.756,728.333,5800.756,699.167,5454.923,670.343C5109.089,641.52,4417.423,613.039,4071.589,598.799L3725.756,584.559" class="er relationshipLine"></path><path style="stroke: gray; fill: none;" marker-start="url(#ONLY_ONE_START)" marker-end="url(#ZERO_OR_MORE_END)" d="M5875.756,1470.962L5829.923,1483.301C5784.089,1495.641,5692.423,1520.321,5648.97,1540.994C5605.518,1561.667,5610.28,1578.333,5612.661,1586.667L5615.042,1595" class="er relationshipLine"></path><path style="stroke: gray; fill: none;" marker-start="url(#ONE_OR_MORE_START)" marker-end="url(#ONLY_ONE_END)" d="M5975.756,1472.083L6017.423,1484.236C6059.089,1496.389,6142.423,1520.694,6184.089,1547.431C6225.756,1574.167,6225.756,1603.333,6225.756,1632.5C6225.756,1661.667,6225.756,1690.833,6235.28,1713.75C6244.803,1736.667,6263.851,1753.333,6273.375,1761.667L6282.899,1770" class="er relationshipLine"></path><path style="stroke: gray; fill: none;" marker-start="url(#ONLY_ONE_START)" marker-end="url(#ZERO_OR_MORE_END)" d="M6129.327,1420L6124.565,1411.667C6119.803,1403.333,6110.28,1386.667,6105.518,1363.75C6100.756,1340.833,6100.756,1311.667,6100.756,1282.5C6100.756,1253.333,6100.756,1224.167,6100.756,1195C6100.756,1165.833,6100.756,1136.667,6100.756,1107.5C6100.756,1078.333,6100.756,1049.167,6100.756,1020C6100.756,990.833,6100.756,961.667,6100.756,932.5C6100.756,903.333,6100.756,874.167,6100.756,845C6100.756,815.833,6100.756,786.667,6100.756,757.5C6100.756,728.333,6100.756,699.167,5704.923,670.301C5309.089,641.435,4517.423,612.869,4121.589,598.587L3725.756,584.304" class="er relationshipLine"></path><path style="stroke: gray; fill: none;" marker-start="url(#ONE_OR_MORE_START)" marker-end="url(#ONLY_ONE_END)" d="M6140.042,1495L6137.661,1503.333C6135.28,1511.667,6130.518,1528.333,6128.137,1551.25C6125.756,1574.167,6125.756,1603.333,6125.756,1632.5C6125.756,1661.667,6125.756,1690.833,6150.629,1716.299C6175.502,1741.764,6225.248,1763.528,6250.121,1774.41L6274.994,1785.292" class="er relationshipLine"></path><path style="stroke: gray; fill: none;" marker-start="url(#ONLY_ONE_START)" marker-end="url(#ZERO_OR_MORE_END)" d="M5572.184,1595L5560.28,1586.667C5548.375,1578.333,5524.565,1561.667,5512.661,1538.75C5500.756,1515.833,5500.756,1486.667,5500.756,1457.5C5500.756,1428.333,5500.756,1399.167,5500.756,1370C5500.756,1340.833,5500.756,1311.667,5500.756,1282.5C5500.756,1253.333,5500.756,1224.167,5500.756,1195C5500.756,1165.833,5500.756,1136.667,5500.756,1107.5C5500.756,1078.333,5500.756,1049.167,5500.756,1020C5500.756,990.833,5500.756,961.667,5500.756,932.5C5500.756,903.333,5500.756,874.167,5500.756,845C5500.756,815.833,5500.756,786.667,5500.756,757.5C5500.756,728.333,5500.756,699.167,5204.923,670.4C4909.089,641.632,4317.423,613.265,4021.589,599.081L3725.756,584.897" class="er relationshipLine"></path><path style="stroke: gray; fill: none;" marker-start="url(#ONE_OR_MORE_START)" marker-end="url(#ONLY_ONE_END)" d="M5625.756,1670L5625.756,1678.333C5625.756,1686.667,5625.756,1703.333,5733.962,1725.192C5842.169,1747.052,6058.581,1774.103,6166.788,1787.629L6274.994,1801.155" class="er relationshipLine"></path><path style="stroke: gray; fill: none;" marker-start="url(#ONLY_ONE_START)" marker-end="url(#ONLY_ONE_END)" d="M2170.303,239.216L2070.063,252.68C1969.824,266.144,1769.344,293.072,1669.105,314.869C1568.865,336.667,1568.865,353.333,1568.865,361.667L1568.865,370" class="er relationshipLine"></path><path style="stroke: gray; fill: none;" marker-start="url(#ONLY_ONE_START)" marker-end="url(#ONLY_ONE_END)" d="M2170.303,250.473L2138.066,262.061C2105.83,273.649,2041.357,296.824,2001.978,316.746C1962.599,336.667,1948.313,353.333,1941.17,361.667L1934.028,370" class="er relationshipLine"></path><path style="stroke: gray; fill: none;" marker-start="url(#ONLY_ONE_START)" marker-end="url(#ONLY_ONE_END)" d="M2183.677,270L2175.537,278.333C2167.398,286.667,2151.12,303.333,2142.981,320C2134.842,336.667,2134.842,353.333,2134.842,361.667L2134.842,370" class="er relationshipLine"></path><path style="stroke: gray; fill: none;" marker-start="url(#ONLY_ONE_START)" marker-end="url(#ONLY_ONE_END)" d="M2270.303,234.858L2571.212,249.048C2872.12,263.239,3473.938,291.619,3774.847,314.143C4075.756,336.667,4075.756,353.333,4075.756,361.667L4075.756,370" class="er relationshipLine"></path><path style="stroke: gray; fill: none;" marker-start="url(#ONLY_ONE_START)" marker-end="url(#ONLY_ONE_END)" d="M2254.783,270L2262.445,278.333C2270.107,286.667,2285.431,303.333,2293.094,326.25C2300.756,349.167,2300.756,378.333,2300.756,407.5C2300.756,436.667,2300.756,465.833,2300.756,495C2300.756,524.167,2300.756,553.333,2300.756,582.5C2300.756,611.667,2300.756,640.833,2300.756,670C2300.756,699.167,2300.756,728.333,2300.756,757.5C2300.756,786.667,2300.756,815.833,2300.756,845C2300.756,874.167,2300.756,903.333,2300.756,932.5C2300.756,961.667,2300.756,990.833,2300.756,1020C2300.756,1049.167,2300.756,1078.333,2300.756,1107.5C2300.756,1136.667,2300.756,1165.833,2300.756,1195C2300.756,1224.167,2300.756,1253.333,2300.756,1282.5C2300.756,1311.667,2300.756,1340.833,2325.756,1366.354C2350.756,1391.875,2400.756,1413.75,2425.756,1424.688L2450.756,1435.625" class="er relationshipLine"></path><path style="stroke: gray; fill: none;" marker-start="url(#ONE_OR_MORE_START)" marker-end="url(#ONLY_ONE_END)" d="M2270.303,236.056L2467.045,250.046C2663.787,264.037,3057.271,292.019,3254.014,320.593C3450.756,349.167,3450.756,378.333,3450.756,407.5C3450.756,436.667,3450.756,465.833,3450.756,495C3450.756,524.167,3450.756,553.333,3450.756,582.5C3450.756,611.667,3450.756,640.833,3450.756,670C3450.756,699.167,3450.756,728.333,3450.756,757.5C3450.756,786.667,3450.756,815.833,3450.756,845C3450.756,874.167,3450.756,903.333,3450.756,932.5C3450.756,961.667,3450.756,990.833,3450.756,1020C3450.756,1049.167,3450.756,1078.333,3450.756,1107.5C3450.756,1136.667,3450.756,1165.833,3450.756,1195C3450.756,1224.167,3450.756,1253.333,3450.756,1282.5C3450.756,1311.667,3450.756,1340.833,3502.158,1367.966C3553.56,1395.098,3656.364,1420.196,3707.766,1432.744L3759.168,1445.293" class="er relationshipLine"></path><path style="stroke: gray; fill: none;" marker-start="url(#ONLY_ONE_START)" marker-end="url(#ONLY_ONE_END)" d="M1880.456,370L1875.694,361.667C1870.932,353.333,1861.409,336.667,1856.647,313.75C1851.885,290.833,1851.885,261.667,1851.885,232.5C1851.885,203.333,1851.885,174.167,2182.265,145.359C2512.646,116.551,3173.407,88.102,3503.787,73.877L3834.168,59.653" class="er relationshipLine"></path><g transform="translate(3834.16796875,20 )" id="entity-Document-5b2ba057-c937-56df-837d-8bac67f835ce"><rect height="75" width="100" y="0" x="0" class="er entityBox"></rect><text style="dominant-baseline: middle; text-anchor: middle; font-size: 12px;" transform="translate(50,37.5)" y="0" x="0" id="text-entity-Document-5b2ba057-c937-56df-837d-8bac67f835ce" class="er entityLabel">Document</text></g><g transform="translate(3625.755859375,545 )" id="entity-Incident-226a32ec-dabf-5094-bed8-4b2f8fc5b73c"><rect height="75" width="100" y="0" x="0" class="er entityBox"></rect><text style="dominant-baseline: middle; text-anchor: middle; font-size: 12px;" transform="translate(50,37.5)" y="0" x="0" id="text-entity-Incident-226a32ec-dabf-5094-bed8-4b2f8fc5b73c" class="er entityLabel">Incident</text></g><g transform="translate(3700.755859375,895 )" id="entity-Report-5e1311b4-907f-59b2-bb53-aa12460d6f9a"><rect height="75" width="100" y="0" x="0" class="er entityBox"></rect><text style="dominant-baseline: middle; text-anchor: middle; font-size: 12px;" transform="translate(50,37.5)" y="0" x="0" id="text-entity-Report-5e1311b4-907f-59b2-bb53-aa12460d6f9a" class="er entityLabel">Report</text></g><g transform="translate(4900.755859375,1595 )" id="entity-Investigation-5c421164-708d-58a9-bbdc-ff9e2564b3bd"><rect height="75" width="100" y="0" x="0" class="er entityBox"></rect><text style="dominant-baseline: middle; text-anchor: middle; font-size: 12px;" transform="translate(50,37.5)" y="0" x="0" id="text-entity-Investigation-5c421164-708d-58a9-bbdc-ff9e2564b3bd" class="er entityLabel">Investigation</text></g><g transform="translate(5875.755859375,1420 )" id="entity-DataSource-337a7b2e-744d-5469-b024-318575916d63"><rect height="75" width="100" y="0" x="0" class="er entityBox"></rect><text style="dominant-baseline: middle; text-anchor: middle; font-size: 12px;" transform="translate(50,37.5)" y="0" x="0" id="text-entity-DataSource-337a7b2e-744d-5469-b024-318575916d63" class="er entityLabel">DataSource</text></g><g transform="translate(2170.302734375,195 )" id="entity-Fire-eac4f935-b45a-5671-9283-f5ff01827045"><rect height="75" width="100" y="0" x="0" class="er entityBox"></rect><text style="dominant-baseline: middle; text-anchor: middle; font-size: 12px;" transform="translate(50,37.5)" y="0" x="0" id="text-entity-Fire-eac4f935-b45a-5671-9283-f5ff01827045" class="er entityLabel">Fire</text></g><g transform="translate(1435.845703125,195 )" id="entity-DocumentType-b7895c75-1f61-5cd1-b37a-f66b7f5fbbf2"><rect height="75" width="108.8515625" y="0" x="0" class="er entityBox"></rect><text style="dominant-baseline: middle; text-anchor: middle; font-size: 12px;" transform="translate(54.42578125,37.5)" y="0" x="0" id="text-entity-DocumentType-b7895c75-1f61-5cd1-b37a-f66b7f5fbbf2" class="er entityLabel">DocumentType</text></g><g transform="translate(6274.994140625,1770 )" id="entity-DataPlatform-75cee768-bbfa-5768-9aca-522f0c7630f1"><rect height="75" width="101.5234375" y="0" x="0" class="er entityBox"></rect><text style="dominant-baseline: middle; text-anchor: middle; font-size: 12px;" transform="translate(50.76171875,37.5)" y="0" x="0" id="text-entity-DataPlatform-75cee768-bbfa-5768-9aca-522f0c7630f1" class="er entityLabel">DataPlatform</text></g><g transform="translate(2750.755859375,1420 )" id="entity-Casualty-8e19bc9c-c43f-5be8-ad86-ef7b0fd1dcfc"><rect height="75" width="100" y="0" x="0" class="er entityBox"></rect><text style="dominant-baseline: middle; text-anchor: middle; font-size: 12px;" transform="translate(50,37.5)" y="0" x="0" id="text-entity-Casualty-8e19bc9c-c43f-5be8-ad86-ef7b0fd1dcfc" class="er entityLabel">Casualty</text></g><g transform="translate(2450.755859375,1420 )" id="entity-Terrain-1e87a703-3df9-5129-a88d-6edbc4a76e0f"><rect height="75" width="100" y="0" x="0" class="er entityBox"></rect><text style="dominant-baseline: middle; text-anchor: middle; font-size: 12px;" transform="translate(50,37.5)" y="0" x="0" id="text-entity-Terrain-1e87a703-3df9-5129-a88d-6edbc4a76e0f" class="er entityLabel">Terrain</text></g><g transform="translate(3200.755859375,1245 )" id="entity-Enemy-eb998e6f-1851-5a68-897b-bee40f132bd4"><rect height="75" width="100" y="0" x="0" class="er entityBox"></rect><text style="dominant-baseline: middle; text-anchor: middle; font-size: 12px;" transform="translate(50,37.5)" y="0" x="0" id="text-entity-Enemy-eb998e6f-1851-5a68-897b-bee40f132bd4" class="er entityLabel">Enemy</text></g><g transform="translate(265.439453125,1420 )" id="entity-Weapon-1549cb1b-e16f-59b9-a966-1679bb75c956"><rect height="75" width="100" y="0" x="0" class="er entityBox"></rect><text style="dominant-baseline: middle; text-anchor: middle; font-size: 12px;" transform="translate(50,37.5)" y="0" x="0" id="text-entity-Weapon-1549cb1b-e16f-59b9-a966-1679bb75c956" class="er entityLabel">Weapon</text></g><g transform="translate(3550.755859375,720 )" id="entity-Submission-9c3c1ab2-d3eb-5cb2-b5c8-2b073d39a1dd"><rect height="75" width="100" y="0" x="0" class="er entityBox"></rect><text style="dominant-baseline: middle; text-anchor: middle; font-size: 12px;" transform="translate(50,37.5)" y="0" x="0" id="text-entity-Submission-9c3c1ab2-d3eb-5cb2-b5c8-2b073d39a1dd" class="er entityLabel">Submission</text></g><g transform="translate(515.439453125,720 )" id="entity-CCMD-51c6e087-af0e-5718-9416-b3a256269d5e"><rect height="75" width="100" y="0" x="0" class="er entityBox"></rect><text style="dominant-baseline: middle; text-anchor: middle; font-size: 12px;" transform="translate(50,37.5)" y="0" x="0" id="text-entity-CCMD-51c6e087-af0e-5718-9416-b3a256269d5e" class="er entityLabel">CCMD</text></g><g transform="translate(715.439453125,720 )" id="entity-Timezone-3d468ea5-fda4-5e76-8487-46ae63a525d8"><rect height="75" width="100" y="0" x="0" class="er entityBox"></rect><text style="dominant-baseline: middle; text-anchor: middle; font-size: 12px;" transform="translate(50,37.5)" y="0" x="0" id="text-entity-Timezone-3d468ea5-fda4-5e76-8487-46ae63a525d8" class="er entityLabel">Timezone</text></g><g transform="translate(915.439453125,720 )" id="entity-ResponsibleParty-6fcc3f12-a2f7-54d1-80d5-d7fe4ef7950f"><rect height="75" width="120.40625" y="0" x="0" class="er entityBox"></rect><text style="dominant-baseline: middle; text-anchor: middle; font-size: 12px;" transform="translate(60.203125,37.5)" y="0" x="0" id="text-entity-ResponsibleParty-6fcc3f12-a2f7-54d1-80d5-d7fe4ef7950f" class="er entityLabel">ResponsibleParty</text></g><g transform="translate(2950.755859375,1420 )" id="entity-Targeting-61a0be53-2482-5630-9b50-43b2c6691526"><rect height="75" width="100" y="0" x="0" class="er entityBox"></rect><text style="dominant-baseline: middle; text-anchor: middle; font-size: 12px;" transform="translate(50,37.5)" y="0" x="0" id="text-entity-Targeting-61a0be53-2482-5630-9b50-43b2c6691526" class="er entityLabel">Targeting</text></g><g transform="translate(1135.845703125,720 )" id="entity-IncidentType-8433b53f-3b0f-5b76-9aec-2d10059bdf5d"><rect height="75" width="100" y="0" x="0" class="er entityBox"></rect><text style="dominant-baseline: middle; text-anchor: middle; font-size: 12px;" transform="translate(50,37.5)" y="0" x="0" id="text-entity-IncidentType-8433b53f-3b0f-5b76-9aec-2d10059bdf5d" class="er entityLabel">IncidentType</text></g><g transform="translate(3759.16796875,1420 )" id="entity-EventType-4e6735da-6bbe-572c-967f-a4d108705637"><rect height="75" width="100" y="0" x="0" class="er entityBox"></rect><text style="dominant-baseline: middle; text-anchor: middle; font-size: 12px;" transform="translate(50,37.5)" y="0" x="0" id="text-entity-EventType-4e6735da-6bbe-572c-967f-a4d108705637" class="er entityLabel">EventType</text></g><g transform="translate(4071.658203125,1420 )" id="entity-OperationType-db1a36f0-f633-599d-b5d4-c03fe217f80f"><rect height="75" width="108.1953125" y="0" x="0" class="er entityBox"></rect><text style="dominant-baseline: middle; text-anchor: middle; font-size: 12px;" transform="translate(54.09765625,37.5)" y="0" x="0" id="text-entity-OperationType-db1a36f0-f633-599d-b5d4-c03fe217f80f" class="er entityLabel">OperationType</text></g><g transform="translate(4375.755859375,1070 )" id="entity-Person-84ee9ab5-8d8f-5582-81c6-bfa2c33a578d"><rect height="75" width="100" y="0" x="0" class="er entityBox"></rect><text style="dominant-baseline: middle; text-anchor: middle; font-size: 12px;" transform="translate(50,37.5)" y="0" x="0" id="text-entity-Person-84ee9ab5-8d8f-5582-81c6-bfa2c33a578d" class="er entityLabel">Person</text></g><g transform="translate(20,1770 )" id="entity-InvestigationType-aa9cfcb1-405c-535f-a5cd-b6335c1d9e6a"><rect height="75" width="123.59375" y="0" x="0" class="er entityBox"></rect><text style="dominant-baseline: middle; text-anchor: middle; font-size: 12px;" transform="translate(61.796875,37.5)" y="0" x="0" id="text-entity-InvestigationType-aa9cfcb1-405c-535f-a5cd-b6335c1d9e6a" class="er entityLabel">InvestigationType</text></g><g transform="translate(4898.525390625,1770 )" id="entity-Dissemination-553ac688-22aa-5250-a095-c6265f03c1d1"><rect height="75" width="104.4609375" y="0" x="0" class="er entityBox"></rect><text style="dominant-baseline: middle; text-anchor: middle; font-size: 12px;" transform="translate(52.23046875,37.5)" y="0" x="0" id="text-entity-Dissemination-553ac688-22aa-5250-a095-c6265f03c1d1" class="er entityLabel">Dissemination</text></g><g transform="translate(4675.755859375,1245 )" id="entity-Authority-bb7172be-5809-52a7-859d-aeda78ecbbe5"><rect height="75" width="100" y="0" x="0" class="er entityBox"></rect><text style="dominant-baseline: middle; text-anchor: middle; font-size: 12px;" transform="translate(50,37.5)" y="0" x="0" id="text-entity-Authority-bb7172be-5809-52a7-859d-aeda78ecbbe5" class="er entityLabel">Authority</text></g><g transform="translate(6100.755859375,1420 )" id="entity-MissionPlan-685e4d0b-6bc0-5d21-a9b0-4bc8b4090d8a"><rect height="75" width="100" y="0" x="0" class="er entityBox"></rect><text style="dominant-baseline: middle; text-anchor: middle; font-size: 12px;" transform="translate(50,37.5)" y="0" x="0" id="text-entity-MissionPlan-685e4d0b-6bc0-5d21-a9b0-4bc8b4090d8a" class="er entityLabel">MissionPlan</text></g><g transform="translate(5567.111328125,1595 )" id="entity-ObservationPlan-8a2802b3-8161-58eb-a825-5f36066a5a7c"><rect height="75" width="117.2890625" y="0" x="0" class="er entityBox"></rect><text style="dominant-baseline: middle; text-anchor: middle; font-size: 12px;" transform="translate(58.64453125,37.5)" y="0" x="0" id="text-entity-ObservationPlan-8a2802b3-8161-58eb-a825-5f36066a5a7c" class="er entityLabel">ObservationPlan</text></g><g transform="translate(1644.697265625,195 )" id="entity-ResourceIndex-a1767102-2d08-5918-97a6-2553b6f7cd3e"><rect height="75" width="107.1875" y="0" x="0" class="er entityBox"></rect><text style="dominant-baseline: middle; text-anchor: middle; font-size: 12px;" transform="translate(53.59375,37.5)" y="0" x="0" id="text-entity-ResourceIndex-a1767102-2d08-5918-97a6-2553b6f7cd3e" class="er entityLabel">ResourceIndex</text></g><g transform="translate(4025.755859375,370 )" id="entity-Organization-ef1721ab-1f62-5ef5-a525-a6c60c2f6032"><rect height="75" width="100" y="0" x="0" class="er entityBox"></rect><text style="dominant-baseline: middle; text-anchor: middle; font-size: 12px;" transform="translate(50,37.5)" y="0" x="0" id="text-entity-Organization-ef1721ab-1f62-5ef5-a525-a6c60c2f6032" class="er entityLabel">Organization</text></g><g transform="translate(800.642578125,1595 )" id="entity-HarmType-20f3fac1-2491-55c6-a5b4-e9b29657bc32"><rect height="75" width="100" y="0" x="0" class="er entityBox"></rect><text style="dominant-baseline: middle; text-anchor: middle; font-size: 12px;" transform="translate(50,37.5)" y="0" x="0" id="text-entity-HarmType-20f3fac1-2491-55c6-a5b4-e9b29657bc32" class="er entityLabel">HarmType</text></g><g transform="translate(182.927734375,1595 )" id="entity-WeaponSystem-a78dfcd0-2d57-5d60-97f0-1c8ef7f5e30c"><rect height="75" width="110.015625" y="0" x="0" class="er entityBox"></rect><text style="dominant-baseline: middle; text-anchor: middle; font-size: 12px;" transform="translate(55.0078125,37.5)" y="0" x="0" id="text-entity-WeaponSystem-a78dfcd0-2d57-5d60-97f0-1c8ef7f5e30c" class="er entityLabel">WeaponSystem</text></g><g transform="translate(264.958984375,1770 )" id="entity-MunitionType-ae16f729-a189-5f34-92c2-2ad2aede0a2a"><rect height="75" width="100.9609375" y="0" x="0" class="er entityBox"></rect><text style="dominant-baseline: middle; text-anchor: middle; font-size: 12px;" transform="translate(50.48046875,37.5)" y="0" x="0" id="text-entity-MunitionType-ae16f729-a189-5f34-92c2-2ad2aede0a2a" class="er entityLabel">MunitionType</text></g><g transform="translate(1518.865234375,370 )" id="entity-Action-6cd87d9a-a078-546e-a35b-bee54f477b31"><rect height="75" width="100" y="0" x="0" class="er entityBox"></rect><text style="dominant-baseline: middle; text-anchor: middle; font-size: 12px;" transform="translate(50,37.5)" y="0" x="0" id="text-entity-Action-6cd87d9a-a078-546e-a35b-bee54f477b31" class="er entityLabel">Action</text></g><g transform="translate(1851.884765625,370 )" id="entity-Metadata-47ac2b3f-9570-57e3-bccb-3cbf04302bb1"><rect height="75" width="100" y="0" x="0" class="er entityBox"></rect><text style="dominant-baseline: middle; text-anchor: middle; font-size: 12px;" transform="translate(50,37.5)" y="0" x="0" id="text-entity-Metadata-47ac2b3f-9570-57e3-bccb-3cbf04302bb1" class="er entityLabel">Metadata</text></g><g transform="translate(2068.927734375,370 )" id="entity-ProductDescription-2f530787-e88a-5b53-ab9d-02420d58e8f3"><rect height="75" width="131.828125" y="0" x="0" class="er entityBox"></rect><text style="dominant-baseline: middle; text-anchor: middle; font-size: 12px;" transform="translate(65.9140625,37.5)" y="0" x="0" id="text-entity-ProductDescription-2f530787-e88a-5b53-ab9d-02420d58e8f3" class="er entityLabel">ProductDescription</text></g><rect height="14" width="52.03125" y="299.0143127441406" x="3724.740478515625" class="er relationshipLabelBox"></rect><text style="text-anchor: middle; dominant-baseline: middle; font-size: 12px;" y="306.0143127441406" x="3750.756103515625" id="rel180" class="er relationshipLabel">relates to</text><rect height="14" width="44.8359375" y="504.07257080078125" x="3853.338134765625" class="er relationshipLabelBox"></rect><text style="text-anchor: middle; dominant-baseline: middle; font-size: 12px;" y="511.07257080078125" x="3875.756103515625" id="rel181" class="er relationshipLabel">contains</text><rect height="14" width="58.3046875" y="317.8167724609375" x="5371.603515625" class="er relationshipLabelBox"></rect><text style="text-anchor: middle; dominant-baseline: middle; font-size: 12px;" y="324.8167724609375" x="5400.755859375" id="rel182" class="er relationshipLabel">documents</text><rect height="14" width="44.8359375" y="132.3644561767578" x="5557.53955078125" class="er relationshipLabelBox"></rect><text style="text-anchor: middle; dominant-baseline: middle; font-size: 12px;" y="139.3644561767578" x="5579.95751953125" id="rel183" class="er relationshipLabel">contains</text><rect height="14" width="58.3046875" y="97.11407470703125" x="2989.39892578125" class="er relationshipLabelBox"></rect><text style="text-anchor: middle; dominant-baseline: middle; font-size: 12px;" y="104.11407470703125" x="3018.55126953125" id="rel184" class="er relationshipLabel">documents</text><rect height="14" width="77.8046875" y="96.51984405517578" x="2615.527099609375" class="er relationshipLabelBox"></rect><text style="text-anchor: middle; dominant-baseline: middle; font-size: 12px;" y="103.51984405517578" x="2654.429443359375" id="rel185" class="er relationshipLabel">categorized as</text><rect height="14" width="52.453125" y="136.69972229003906" x="6126.13818359375" class="er relationshipLabelBox"></rect><text style="text-anchor: middle; dominant-baseline: middle; font-size: 12px;" y="143.69972229003906" x="6152.36474609375" id="rel186" class="er relationshipLabel">hosted on</text><rect height="14" width="52.8046875" y="744.7283935546875" x="3724.346435546875" class="er relationshipLabelBox"></rect><text style="text-anchor: middle; dominant-baseline: middle; font-size: 12px;" y="751.7283935546875" x="3750.748779296875" id="rel187" class="er relationshipLabel">generates</text><rect height="14" width="43.1171875" y="682.334228515625" x="2845.365234375" class="er relationshipLabelBox"></rect><text style="text-anchor: middle; dominant-baseline: middle; font-size: 12px;" y="689.334228515625" x="2866.923828125" id="rel188" class="er relationshipLabel">involves</text><rect height="14" width="42.75" y="666.0494384765625" x="5039.91796875" class="er relationshipLabelBox"></rect><text style="text-anchor: middle; dominant-baseline: middle; font-size: 12px;" y="673.0494384765625" x="5061.29296875" id="rel189" class="er relationshipLabel">leads to</text><rect height="14" width="48" y="684.0355224609375" x="2745.34814453125" class="er relationshipLabelBox"></rect><text style="text-anchor: middle; dominant-baseline: middle; font-size: 12px;" y="691.0355224609375" x="2769.34814453125" id="rel190" class="er relationshipLabel">occurs in</text><rect height="14" width="43.1171875" y="831.26318359375" x="3329.197509765625" class="er relationshipLabelBox"></rect><text style="text-anchor: middle; dominant-baseline: middle; font-size: 12px;" y="838.26318359375" x="3350.756103515625" id="rel191" class="er relationshipLabel">involves</text><rect height="14" width="22.8203125" y="633.3426513671875" x="1656.9801025390625" class="er relationshipLabelBox"></rect><text style="text-anchor: middle; dominant-baseline: middle; font-size: 12px;" y="640.3426513671875" x="1668.3902587890625" id="rel192" class="er relationshipLabel">uses</text><rect height="14" width="17.71875" y="658.1259765625" x="3601.323486328125" class="er relationshipLabelBox"></rect><text style="text-anchor: middle; dominant-baseline: middle; font-size: 12px;" y="665.1259765625" x="3610.182861328125" id="rel193" class="er relationshipLabel">has</text><rect height="14" width="48" y="621.2212524414062" x="2064.342041015625" class="er relationshipLabelBox"></rect><text style="text-anchor: middle; dominant-baseline: middle; font-size: 12px;" y="628.2212524414062" x="2088.342041015625" id="rel194" class="er relationshipLabel">occurs in</text><rect height="14" width="48" y="621.28955078125" x="2164.214111328125" class="er relationshipLabelBox"></rect><text style="text-anchor: middle; dominant-baseline: middle; font-size: 12px;" y="628.28955078125" x="2188.214111328125" id="rel195" class="er relationshipLabel">occurs in</text><rect height="14" width="83.3984375" y="621.3711547851562" x="2251.46630859375" class="er relationshipLabelBox"></rect><text style="text-anchor: middle; dominant-baseline: middle; font-size: 12px;" y="628.3711547851562" x="2293.16552734375" id="rel196" class="er relationshipLabel">associated with</text><rect height="14" width="43.1171875" y="770.4347534179688" x="3029.197509765625" class="er relationshipLabelBox"></rect><text style="text-anchor: middle; dominant-baseline: middle; font-size: 12px;" y="777.4347534179688" x="3050.756103515625" id="rel197" class="er relationshipLabel">involves</text><rect height="14" width="64.78125" y="644.2899169921875" x="5659.21435546875" class="er relationshipLabelBox"></rect><text style="text-anchor: middle; dominant-baseline: middle; font-size: 12px;" y="651.2899169921875" x="5691.60498046875" id="rel198" class="er relationshipLabel">recorded on</text><rect height="14" width="77.8046875" y="621.4708251953125" x="2359.1943359375" class="er relationshipLabelBox"></rect><text style="text-anchor: middle; dominant-baseline: middle; font-size: 12px;" y="628.4708251953125" x="2398.0966796875" id="rel199" class="er relationshipLabel">categorized as</text><rect height="14" width="77.8046875" y="954.36767578125" x="3936.853759765625" class="er relationshipLabelBox"></rect><text style="text-anchor: middle; dominant-baseline: middle; font-size: 12px;" y="961.36767578125" x="3975.756103515625" id="rel200" class="er relationshipLabel">categorized as</text><rect height="14" width="77.8046875" y="830.1679077148438" x="4136.853515625" class="er relationshipLabelBox"></rect><text style="text-anchor: middle; dominant-baseline: middle; font-size: 12px;" y="837.1679077148438" x="4175.755859375" id="rel201" class="er relationshipLabel">categorized as</text><rect height="14" width="70.453125" y="972.8200073242188" x="4148.47802734375" class="er relationshipLabelBox"></rect><text style="text-anchor: middle; dominant-baseline: middle; font-size: 12px;" y="979.8200073242188" x="4183.70458984375" id="rel202" class="er relationshipLabel">submitted by</text><rect height="14" width="40.3359375" y="998.9576416015625" x="4809.9111328125" class="er relationshipLabelBox"></rect><text style="text-anchor: middle; dominant-baseline: middle; font-size: 12px;" y="1005.9576416015625" x="4830.0791015625" id="rel203" class="er relationshipLabel">informs</text><rect height="14" width="48.375" y="1369.161865234375" x="1311.658447265625" class="er relationshipLabelBox"></rect><text style="text-anchor: middle; dominant-baseline: middle; font-size: 12px;" y="1376.161865234375" x="1335.845947265625" id="rel204" class="er relationshipLabel">produces</text><rect height="14" width="77.8046875" y="1670.87109375" x="2445.856201171875" class="er relationshipLabelBox"></rect><text style="text-anchor: middle; dominant-baseline: middle; font-size: 12px;" y="1677.87109375" x="2484.758544921875" id="rel205" class="er relationshipLabel">categorized as</text><rect height="14" width="22.8203125" y="1671.4012451171875" x="5694.89892578125" class="er relationshipLabelBox"></rect><text style="text-anchor: middle; dominant-baseline: middle; font-size: 12px;" y="1678.4012451171875" x="5706.30908203125" id="rel206" class="er relationshipLabel">uses</text><rect height="14" width="22.8203125" y="1713" x="4939.345703125" class="er relationshipLabelBox"></rect><text style="text-anchor: middle; dominant-baseline: middle; font-size: 12px;" y="1720" x="4950.755859375" id="rel207" class="er relationshipLabel">uses</text><rect height="14" width="31.1015625" y="339.848388671875" x="4660.205078125" class="er relationshipLabelBox"></rect><text style="text-anchor: middle; dominant-baseline: middle; font-size: 12px;" y="346.848388671875" x="4675.755859375" id="rel208" class="er relationshipLabel">issues</text><rect height="14" width="47.7421875" y="1369.1259765625" x="5030.5908203125" class="er relationshipLabelBox"></rect><text style="text-anchor: middle; dominant-baseline: middle; font-size: 12px;" y="1376.1259765625" x="5054.4619140625" id="rel209" class="er relationshipLabel">conducts</text><rect height="14" width="55.8046875" y="1320.9342041015625" x="2461.03125" class="er relationshipLabelBox"></rect><text style="text-anchor: middle; dominant-baseline: middle; font-size: 12px;" y="1327.9342041015625" x="2488.93359375" id="rel210" class="er relationshipLabel">authorizes</text><rect height="14" width="46.5546875" y="1323.3677978515625" x="5329.96875" class="er relationshipLabelBox"></rect><text style="text-anchor: middle; dominant-baseline: middle; font-size: 12px;" y="1330.3677978515625" x="5353.24609375" id="rel211" class="er relationshipLabel">manages</text><rect height="14" width="39.6171875" y="1321.813720703125" x="5468.4423828125" class="er relationshipLabelBox"></rect><text style="text-anchor: middle; dominant-baseline: middle; font-size: 12px;" y="1328.813720703125" x="5488.2509765625" id="rel212" class="er relationshipLabel">creates</text><rect height="14" width="39.6171875" y="1333.646728515625" x="5311.99267578125" class="er relationshipLabelBox"></rect><text style="text-anchor: middle; dominant-baseline: middle; font-size: 12px;" y="1340.646728515625" x="5331.80126953125" id="rel213" class="er relationshipLabel">creates</text><rect height="14" width="48.2578125" y="1321.514404296875" x="3789.90478515625" class="er relationshipLabelBox"></rect><text style="text-anchor: middle; dominant-baseline: middle; font-size: 12px;" y="1328.514404296875" x="3814.03369140625" id="rel214" class="er relationshipLabel">performs</text><rect height="14" width="22.8203125" y="1334.003173828125" x="5711.05517578125" class="er relationshipLabelBox"></rect><text style="text-anchor: middle; dominant-baseline: middle; font-size: 12px;" y="1341.003173828125" x="5722.46533203125" id="rel215" class="er relationshipLabel">uses</text><rect height="14" width="47.7421875" y="1324.4423828125" x="4347.2685546875" class="er relationshipLabelBox"></rect><text style="text-anchor: middle; dominant-baseline: middle; font-size: 12px;" y="1331.4423828125" x="4371.1396484375" id="rel216" class="er relationshipLabel">conducts</text><rect height="14" width="41.046875" y="1322.05419921875" x="4171.94873046875" class="er relationshipLabelBox"></rect><text style="text-anchor: middle; dominant-baseline: middle; font-size: 12px;" y="1329.05419921875" x="4192.47216796875" id="rel217" class="er relationshipLabel">handles</text><rect height="14" width="60.3984375" y="1322.7445068359375" x="3575.573974609375" class="er relationshipLabelBox"></rect><text style="text-anchor: middle; dominant-baseline: middle; font-size: 12px;" y="1329.7445068359375" x="3605.773193359375" id="rel218" class="er relationshipLabel">operates in</text><rect height="14" width="58.671875" y="96.64764404296875" x="2728.897705078125" class="er relationshipLabelBox"></rect><text style="text-anchor: middle; dominant-baseline: middle; font-size: 12px;" y="103.64764404296875" x="2758.233642578125" id="rel219" class="er relationshipLabel">indexed by</text><rect height="14" width="83.3984375" y="854.4759521484375" x="3592.702392578125" class="er relationshipLabelBox"></rect><text style="text-anchor: middle; dominant-baseline: middle; font-size: 12px;" y="861.4759521484375" x="3634.401611328125" id="rel220" class="er relationshipLabel">associated with</text><rect height="14" width="58.5390625" y="655.1246948242188" x="4200.18896484375" class="er relationshipLabelBox"></rect><text style="text-anchor: middle; dominant-baseline: middle; font-size: 12px;" y="662.1246948242188" x="4229.45849609375" id="rel221" class="er relationshipLabel">involved in</text><rect height="14" width="58.5390625" y="1190.4068603515625" x="4887.50439453125" class="er relationshipLabelBox"></rect><text style="text-anchor: middle; dominant-baseline: middle; font-size: 12px;" y="1197.4068603515625" x="4916.77392578125" id="rel222" class="er relationshipLabel">involved in</text><rect height="14" width="39.03125" y="1147.9593505859375" x="3784.011962890625" class="er relationshipLabelBox"></rect><text style="text-anchor: middle; dominant-baseline: middle; font-size: 12px;" y="1154.9593505859375" x="3803.527587890625" id="rel223" class="er relationshipLabel">may be</text><rect height="14" width="39.03125" y="1154.38623046875" x="4615.60009765625" class="er relationshipLabelBox"></rect><text style="text-anchor: middle; dominant-baseline: middle; font-size: 12px;" y="1161.38623046875" x="4635.11572265625" id="rel224" class="er relationshipLabel">may be</text><rect height="14" width="83.3984375" y="467.73828125" x="4234.056640625" class="er relationshipLabelBox"></rect><text style="text-anchor: middle; dominant-baseline: middle; font-size: 12px;" y="474.73828125" x="4275.755859375" id="rel225" class="er relationshipLabel">associated with</text><rect height="14" width="43.9453125" y="614.716552734375" x="4453.783203125" class="er relationshipLabelBox"></rect><text style="text-anchor: middle; dominant-baseline: middle; font-size: 12px;" y="621.716552734375" x="4475.755859375" id="rel226" class="er relationshipLabel">employs</text><rect height="14" width="58.5390625" y="450.5229797363281" x="3768.378173828125" class="er relationshipLabelBox"></rect><text style="text-anchor: middle; dominant-baseline: middle; font-size: 12px;" y="457.5229797363281" x="3797.647705078125" id="rel227" class="er relationshipLabel">involved in</text><rect height="14" width="77.9453125" y="673.592041015625" x="4861.783203125" class="er relationshipLabelBox"></rect><text style="text-anchor: middle; dominant-baseline: middle; font-size: 12px;" y="680.592041015625" x="4900.755859375" id="rel228" class="er relationshipLabel">participates in</text><rect height="14" width="53.8125" y="480.6903381347656" x="2802.9296875" class="er relationshipLabelBox"></rect><text style="text-anchor: middle; dominant-baseline: middle; font-size: 12px;" y="487.6903381347656" x="2829.8359375" id="rel229" class="er relationshipLabel">located in</text><rect height="14" width="54.29296875" y="1505.1080322265625" x="3851.5810546875" class="er relationshipLabelBox"></rect><text style="text-anchor: middle; dominant-baseline: middle; font-size: 12px;" y="1512.1080322265625" x="3878.7275390625" id="rel230" class="er relationshipLabel">subject of</text><rect height="14" width="77.8046875" y="1496.8255615234375" x="1753.5263671875" class="er relationshipLabelBox"></rect><text style="text-anchor: middle; dominant-baseline: middle; font-size: 12px;" y="1503.8255615234375" x="1792.4287109375" id="rel231" class="er relationshipLabel">categorized as</text><rect height="14" width="54.29296875" y="1345.220458984375" x="4120.93896484375" class="er relationshipLabelBox"></rect><text style="text-anchor: middle; dominant-baseline: middle; font-size: 12px;" y="1352.220458984375" x="4148.08544921875" id="rel232" class="er relationshipLabel">subject of</text><rect height="14" width="71.0625" y="993.705078125" x="3289.796630859375" class="er relationshipLabelBox"></rect><text style="text-anchor: middle; dominant-baseline: middle; font-size: 12px;" y="1000.705078125" x="3325.327880859375" id="rel233" class="er relationshipLabel">mentioned in</text><rect height="14" width="53.8125" y="1322.709228515625" x="2776.40869140625" class="er relationshipLabelBox"></rect><text style="text-anchor: middle; dominant-baseline: middle; font-size: 12px;" y="1329.709228515625" x="2803.31494140625" id="rel234" class="er relationshipLabel">located in</text><rect height="14" width="36.9609375" y="1532.868408203125" x="229.33230590820312" class="er relationshipLabelBox"></rect><text style="text-anchor: middle; dominant-baseline: middle; font-size: 12px;" y="1539.868408203125" x="247.81277465820312" id="rel235" class="er relationshipLabel">part of</text><rect height="14" width="71.0625" y="976.9207153320312" x="1745.6650390625" class="er relationshipLabelBox"></rect><text style="text-anchor: middle; dominant-baseline: middle; font-size: 12px;" y="983.9207153320312" x="1781.1962890625" id="rel236" class="er relationshipLabel">mentioned in</text><rect height="14" width="58.5390625" y="1528.79052734375" x="2604.1669921875" class="er relationshipLabelBox"></rect><text style="text-anchor: middle; dominant-baseline: middle; font-size: 12px;" y="1535.79052734375" x="2633.4365234375" id="rel237" class="er relationshipLabel">involved in</text><rect height="14" width="22.8203125" y="1625.5" x="381.5328369140625" class="er relationshipLabelBox"></rect><text style="text-anchor: middle; dominant-baseline: middle; font-size: 12px;" y="1632.5" x="392.9429931640625" id="rel238" class="er relationshipLabel">uses</text><rect height="14" width="22.8203125" y="1718.131591796875" x="236.40260314941406" class="er relationshipLabelBox"></rect><text style="text-anchor: middle; dominant-baseline: middle; font-size: 12px;" y="1725.131591796875" x="247.81275939941406" id="rel239" class="er relationshipLabel">uses</text><rect height="14" width="92" y="641.0076293945312" x="5078.14111328125" class="er relationshipLabelBox"></rect><text style="text-anchor: middle; dominant-baseline: middle; font-size: 12px;" y="648.0076293945312" x="5124.14111328125" id="rel240" class="er relationshipLabel">provides data for</text><rect height="14" width="38.2421875" y="1505.7879638671875" x="5707.14599609375" class="er relationshipLabelBox"></rect><text style="text-anchor: middle; dominant-baseline: middle; font-size: 12px;" y="1512.7879638671875" x="5726.26708984375" id="rel241" class="er relationshipLabel">used in</text><rect height="14" width="52.453125" y="1550.827880859375" x="6171.91845703125" class="er relationshipLabelBox"></rect><text style="text-anchor: middle; dominant-baseline: middle; font-size: 12px;" y="1557.827880859375" x="6198.14501953125" id="rel242" class="er relationshipLabel">hosted on</text><rect height="14" width="52.03125" y="637.6353149414062" x="5234.01953125" class="er relationshipLabelBox"></rect><text style="text-anchor: middle; dominant-baseline: middle; font-size: 12px;" y="644.6353149414062" x="5260.03515625" id="rel243" class="er relationshipLabel">relates to</text><rect height="14" width="22.8203125" y="1672.2945556640625" x="6118.2978515625" class="er relationshipLabelBox"></rect><text style="text-anchor: middle; dominant-baseline: middle; font-size: 12px;" y="1679.2945556640625" x="6129.7080078125" id="rel244" class="er relationshipLabel">uses</text><rect height="14" width="52.03125" y="651.0123291015625" x="5034.1015625" class="er relationshipLabelBox"></rect><text style="text-anchor: middle; dominant-baseline: middle; font-size: 12px;" y="658.0123291015625" x="5060.1171875" id="rel245" class="er relationshipLabel">relates to</text><rect height="14" width="22.8203125" y="1750.9095458984375" x="5927.31005859375" class="er relationshipLabelBox"></rect><text style="text-anchor: middle; dominant-baseline: middle; font-size: 12px;" y="1757.9095458984375" x="5938.72021484375" id="rel246" class="er relationshipLabel">uses</text><rect height="14" width="83.3984375" y="275.4313659667969" x="1815.931640625" class="er relationshipLabelBox"></rect><text style="text-anchor: middle; dominant-baseline: middle; font-size: 12px;" y="282.4313659667969" x="1857.630859375" id="rel247" class="er relationshipLabel">associated with</text><rect height="14" width="68.25" y="290.4591369628906" x="2010.6396484375" class="er relationshipLabelBox"></rect><text style="text-anchor: middle; dominant-baseline: middle; font-size: 12px;" y="297.4591369628906" x="2044.7646484375" id="rel248" class="er relationshipLabel">described by</text><rect height="14" width="68.25" y="307.0460510253906" x="2112.091552734375" class="er relationshipLabelBox"></rect><text style="text-anchor: middle; dominant-baseline: middle; font-size: 12px;" y="314.0460510253906" x="2146.216552734375" id="rel249" class="er relationshipLabel">described by</text><rect height="14" width="83.3984375" y="271.9104919433594" x="3139.726806640625" class="er relationshipLabelBox"></rect><text style="text-anchor: middle; dominant-baseline: middle; font-size: 12px;" y="278.9104919433594" x="3181.426025390625" id="rel250" class="er relationshipLabel">associated with</text><rect height="14" width="48" y="879.64404296875" x="2276.756103515625" class="er relationshipLabelBox"></rect><text style="text-anchor: middle; dominant-baseline: middle; font-size: 12px;" y="886.64404296875" x="2300.756103515625" id="rel251" class="er relationshipLabel">occurs in</text><rect height="14" width="77.8046875" y="416.3470458984375" x="3411.853759765625" class="er relationshipLabelBox"></rect><text style="text-anchor: middle; dominant-baseline: middle; font-size: 12px;" y="423.3470458984375" x="3450.756103515625" id="rel252" class="er relationshipLabel">categorized as</text><rect height="14" width="50.203125" y="101.54458618164062" x="2732.3193359375" class="er relationshipLabelBox"></rect><text style="text-anchor: middle; dominant-baseline: middle; font-size: 12px;" y="108.54458618164062" x="2757.4208984375" id="rel253" class="er relationshipLabel">describes</text></svg>